<svg xmlns="http://www.w3.org/2000/svg" xmlns:xlink="http://www.w3.org/1999/xlink" width="1024" zoomAndPan="magnify" viewBox="0 0 768 767.999994" height="1024" preserveAspectRatio="xMidYMid meet" version="1.0"><defs><clipPath id="5f3ebd1e46"><path d="M 202.648438 1 L 565.648438 1 L 565.648438 767 L 202.648438 767 Z M 202.648438 1 " clip-rule="nonzero"/></clipPath></defs><g clip-path="url(#5f3ebd1e46)"><path fill="#ffffff" d="M 481.902344 127.507812 L 565.648438 127.507812 L 565.648438 1.351562 L 458.714844 1.351562 L 458.714844 1.835938 C 318.121094 6.984375 289.132812 85.667969 286.714844 168.859375 L 286.394531 168.859375 L 286.394531 256.398438 L 202.648438 256.398438 L 202.648438 382.710938 L 286.394531 382.710938 L 286.394531 766.648438 L 436.648438 766.648438 L 436.648438 382.710938 L 544.390625 382.710938 L 565.648438 256.398438 L 436.648438 256.398438 L 436.648438 178.03125 C 436.648438 150.195312 455.332031 127.507812 481.90625 127.507812 Z M 481.902344 127.507812 " fill-opacity="1" fill-rule="nonzero"/></g></svg>