<svg xmlns="http://www.w3.org/2000/svg" xmlns:xlink="http://www.w3.org/1999/xlink" width="1024" zoomAndPan="magnify" viewBox="0 0 768 767.999994" height="1024" preserveAspectRatio="xMidYMid meet" version="1.0"><defs><clipPath id="81fbfde808"><path d="M 6.242188 6.242188 L 761.492188 6.242188 L 761.492188 761.492188 L 6.242188 761.492188 Z M 6.242188 6.242188 " clip-rule="nonzero"/></clipPath></defs><g clip-path="url(#81fbfde808)"><path fill="#ffffff" d="M 227.375 8.839844 C 187.210938 10.726562 159.785156 17.164062 135.808594 26.558594 C 110.976562 36.234375 89.949219 49.183594 69.03125 70.207031 C 48.078125 91.230469 35.203125 112.292969 25.632812 137.160156 C 16.347656 161.207031 10.050781 188.636719 8.273438 228.835938 C 6.492188 269.070312 6.101562 281.910156 6.28125 384.4375 C 6.457031 486.929688 6.917969 499.808594 8.839844 540.078125 C 10.761719 580.242188 17.164062 607.632812 26.558594 631.644531 C 36.234375 656.476562 49.183594 677.464844 70.207031 698.421875 C 91.230469 719.375 112.292969 732.214844 137.160156 741.820312 C 161.171875 751.105469 188.636719 757.4375 228.800781 759.179688 C 269.070312 760.960938 281.910156 761.351562 384.402344 761.136719 C 486.929688 760.960938 499.769531 760.496094 540.042969 758.578125 C 580.207031 756.65625 607.597656 750.214844 631.609375 740.859375 C 656.441406 731.148438 677.464844 718.234375 698.382812 697.210938 C 719.300781 676.1875 732.179688 655.125 741.785156 630.257812 C 751.070312 606.246094 757.402344 578.78125 759.144531 538.65625 C 760.890625 498.382812 761.316406 485.503906 761.136719 383.015625 C 760.960938 280.523438 760.460938 267.683594 758.578125 227.410156 C 756.65625 187.210938 750.253906 159.820312 740.859375 135.808594 C 731.148438 110.976562 718.234375 89.988281 697.210938 69.035156 C 676.1875 48.117188 655.125 35.203125 630.257812 25.632812 C 606.246094 16.347656 578.78125 10.015625 538.617188 8.273438 C 498.347656 6.492188 485.46875 6.101562 382.980469 6.28125 C 280.488281 6.457031 267.648438 6.921875 227.375 8.839844 M 231.789062 691.199219 C 195.003906 689.597656 175.011719 683.480469 161.667969 678.355469 C 144.023438 671.527344 131.464844 663.34375 118.199219 650.214844 C 104.964844 637.019531 96.78125 624.460938 89.878906 606.886719 C 84.722656 593.582031 78.496094 573.625 76.753906 536.804688 C 74.867188 497.03125 74.441406 485.078125 74.261719 384.296875 C 74.085938 283.546875 74.441406 271.59375 76.183594 231.789062 C 77.75 195.003906 83.902344 175.011719 89.027344 161.707031 C 95.855469 144.058594 104.003906 131.503906 117.164062 118.234375 C 130.363281 105 142.921875 96.816406 160.53125 89.914062 C 173.835938 84.722656 193.792969 78.53125 230.578125 76.789062 C 270.386719 74.902344 282.304688 74.511719 383.085938 74.296875 C 483.871094 74.085938 495.824219 74.441406 535.628906 76.21875 C 572.414062 77.820312 592.40625 83.902344 605.710938 89.0625 C 623.359375 95.890625 635.949219 104.003906 649.183594 117.203125 C 662.417969 130.398438 670.636719 142.921875 677.503906 160.566406 C 682.695312 173.835938 688.886719 193.828125 690.628906 230.578125 C 692.515625 270.386719 692.941406 282.339844 693.121094 383.085938 C 693.296875 483.871094 692.941406 495.824219 691.199219 535.59375 C 689.597656 572.378906 683.480469 592.40625 678.355469 605.710938 C 671.527344 623.320312 663.378906 635.914062 650.179688 649.148438 C 636.984375 662.347656 624.460938 670.566406 606.816406 677.464844 C 593.546875 682.660156 573.554688 688.851562 536.804688 690.59375 C 496.996094 692.480469 485.078125 692.90625 384.261719 693.082031 C 283.511719 693.261719 271.558594 692.90625 231.75 691.164062 M 539.507812 181.945312 C 539.542969 206.957031 559.890625 227.199219 584.867188 227.128906 C 609.875 227.089844 630.117188 206.777344 630.082031 181.769531 C 630.046875 156.761719 609.695312 136.519531 584.6875 136.554688 C 559.679688 136.589844 539.4375 156.9375 539.472656 181.910156 M 189.878906 384.082031 C 190.09375 491.125 277.039062 577.714844 384.046875 577.5 C 491.089844 577.289062 577.714844 490.378906 577.5 383.335938 C 577.289062 276.328125 490.34375 189.703125 383.300781 189.878906 C 276.292969 190.09375 189.667969 277.039062 189.878906 384.082031 M 257.863281 383.941406 C 257.757812 314.460938 313.964844 258.003906 383.441406 257.898438 C 452.917969 257.757812 509.375 313.964844 509.519531 383.476562 C 509.660156 452.953125 453.417969 509.410156 383.941406 509.519531 C 314.460938 509.660156 258.003906 453.417969 257.898438 383.941406 " fill-opacity="1" fill-rule="nonzero"/></g></svg>