<svg xmlns="http://www.w3.org/2000/svg" xmlns:xlink="http://www.w3.org/1999/xlink" width="1024" zoomAndPan="magnify" viewBox="0 0 768 767.999994" height="1024" preserveAspectRatio="xMidYMid meet" version="1.0"><defs><clipPath id="1f424d779c"><path d="M 0 0 L 763.5 0 L 763.5 768 L 0 768 Z M 0 0 " clip-rule="nonzero"/></clipPath></defs><g clip-path="url(#1f424d779c)"><path fill="#ffffff" d="M 652.179688 111.90625 C 580.417969 40.042969 484.992188 0.390625 383.304688 0.390625 C 173.789062 0.390625 3.261719 170.945312 3.1875 380.621094 C 3.1875 447.632812 20.671875 513.085938 53.933594 570.71875 L 0 767.761719 L 201.515625 714.867188 C 257.042969 745.183594 319.546875 761.121094 383.152344 761.160156 L 383.304688 761.160156 C 592.785156 761.160156 763.347656 590.566406 763.386719 380.925781 C 763.386719 279.3125 723.941406 183.808594 652.140625 111.90625 Z M 383.304688 696.957031 L 383.191406 696.957031 C 326.527344 696.957031 270.886719 681.707031 222.375 652.90625 L 210.84375 646.039062 L 91.257812 677.417969 L 123.152344 560.777344 L 115.644531 548.828125 C 84.011719 498.515625 67.324219 440.347656 67.359375 380.625 C 67.4375 206.386719 209.175781 64.589844 383.417969 64.589844 C 467.808594 64.589844 547.117188 97.527344 606.78125 157.285156 C 666.441406 217.011719 699.25 296.425781 699.210938 380.886719 C 699.136719 555.164062 557.398438 696.957031 383.265625 696.957031 Z M 556.601562 460.265625 C 547.117188 455.523438 500.429688 432.53125 491.703125 429.378906 C 482.980469 426.191406 476.683594 424.636719 470.351562 434.125 C 464.015625 443.648438 445.8125 465.046875 440.273438 471.382812 C 434.734375 477.71875 429.199219 478.515625 419.679688 473.738281 C 410.195312 468.992188 379.589844 458.9375 343.289062 426.574219 C 315.070312 401.378906 295.992188 370.265625 290.457031 360.742188 C 284.917969 351.214844 289.886719 346.09375 294.628906 341.351562 C 298.875 337.101562 304.109375 330.234375 308.890625 324.695312 C 313.628906 319.15625 315.222656 315.171875 318.371094 308.832031 C 321.558594 302.496094 319.964844 296.957031 317.574219 292.175781 C 315.183594 287.433594 296.222656 240.648438 288.292969 221.640625 C 280.59375 203.121094 272.742188 205.628906 266.941406 205.324219 C 261.402344 205.058594 255.070312 204.980469 248.734375 204.980469 C 242.402344 204.980469 232.121094 207.335938 223.398438 216.859375 C 214.675781 226.382812 190.171875 249.375 190.171875 296.121094 C 190.171875 342.871094 224.195312 388.058594 228.972656 394.433594 C 233.714844 400.769531 295.957031 496.730469 391.230469 537.898438 C 413.875 547.6875 431.589844 553.53125 445.394531 557.933594 C 468.152344 565.179688 488.859375 564.15625 505.207031 561.691406 C 523.449219 558.957031 561.378906 538.695312 569.304688 516.5 C 577.234375 494.300781 577.234375 475.292969 574.84375 471.308594 C 572.453125 467.324219 566.121094 464.972656 556.636719 460.191406 Z M 556.601562 460.265625 " fill-opacity="1" fill-rule="evenodd"/></g></svg>